<svg width="32" height="32" viewBox="0 0 32 32" fill="none" xmlns="http://www.w3.org/2000/svg">
<g clip-path="url(#clip0_628_20009)">
<rect width="32" height="32" rx="16" fill="#DAD4FF"/>
<circle cx="4.59728" cy="4.59728" r="4.59728" transform="matrix(-0.882755 -0.469834 -0.469834 0.882755 26.3032 21.6533)" fill="#3F2121"/>
<circle cx="16.0003" cy="35.2" r="11.2" fill="#7260E0"/>
<circle cx="6.19655" cy="6.19655" r="6.19655" transform="matrix(-0.882755 -0.469834 -0.469834 0.882755 29.4092 15.8545)" fill="#3F2121"/>
<circle cx="8.84262" cy="8.84262" r="8.84262" transform="matrix(-0.882755 -0.469834 -0.469834 0.882755 28.0112 9.41376)" fill="#3F2121"/>
<path fill-rule="evenodd" clip-rule="evenodd" d="M19.0155 11.8936C18.8148 12.5328 18.7706 13.3838 18.9398 14.2922C19.1091 15.2006 19.4568 15.9785 19.8742 16.5025C20.2967 17.0328 20.7597 17.2696 21.1654 17.194C21.5712 17.1184 21.9178 16.7308 22.1209 16.0839C22.3216 15.4447 22.3659 14.5937 22.1967 13.6854C22.0274 12.777 21.6797 11.999 21.2622 11.475C20.8398 10.9447 20.3768 10.708 19.971 10.7836C19.5653 10.8592 19.2187 11.2468 19.0155 11.8936ZM18.7053 11.7962C18.9225 11.1046 19.3296 10.5723 19.9115 10.4639C20.4934 10.3555 21.0649 10.7054 21.5166 11.2724C21.9733 11.8457 22.3393 12.6757 22.5163 13.6258C22.6934 14.5759 22.6508 15.482 22.4312 16.1813C22.214 16.8729 21.8069 17.4052 21.225 17.5136C20.6431 17.6221 20.0716 17.2721 19.6199 16.7051C19.1632 16.1318 18.7971 15.3018 18.6201 14.3517C18.4431 13.4017 18.4857 12.4955 18.7053 11.7962Z" fill="white"/>
<path d="M21.4926 13.1611L21.5814 13.1877C21.8107 13.2566 22.0592 13.1872 22.2195 13.0094L22.3658 13.9489C22.1684 13.8439 21.925 13.8867 21.7752 14.0526L21.7674 14.0613L21.4926 13.1611Z" fill="white"/>
<path d="M19.9085 11.8872L23.0581 15.987C23.228 16.2082 23.126 16.531 22.8599 16.6144L20.1214 17.4729L17.9484 22.0459L17.9484 26.5634C17.9484 27.2372 17.3314 27.7422 16.6708 27.609L12.8553 26.8393C12.3575 26.7389 11.9996 26.3015 11.9996 25.7937L11.9996 15.4667L19.9085 11.8872Z" fill="#F9B8A4"/>
<mask id="mask0_628_20009" style="mask-type:alpha" maskUnits="userSpaceOnUse" x="10" y="19" width="8" height="9">
<path d="M12.1126 19.2629L17.9485 22.0459L17.9485 27.3333L10.8318 21.6692L12.1126 19.2629Z" fill="#F9B8A4"/>
</mask>
<g mask="url(#mask0_628_20009)">
<path d="M18.4803 23.889C18.4921 23.6302 18.3272 22.6242 18.782 22.2902L14.6705 22.2528C14.3941 22.2503 14.2422 22.532 14.4553 22.7078C15.6314 23.6781 18.4689 24.1395 18.4803 23.889Z" fill="#DB8C74"/>
</g>
<circle cx="17.9138" cy="16.9376" r="1.5049" transform="rotate(19.3381 17.9138 16.9376)" fill="#F49D82"/>
<path d="M10.5516 16.9816C11.4242 22.0356 16.038 22.5247 19.5494 22.1216C21.9193 21.8496 23.1898 19.4354 22.5371 17.1409C22.0474 15.4194 21.4551 13.3879 20.8783 11.5363C19.5253 7.1925 16.8911 7.28711 14.3701 8.07239C11.8492 8.85767 9.19848 12.6378 10.5516 16.9816Z" fill="#F9B8A4"/>
<circle cx="18.3391" cy="16.2145" r="1.54529" transform="rotate(39.1988 18.3391 16.2145)" fill="#F49D82"/>
<path d="M17.1833 13.7402C16.6933 13.2895 17.3817 12.1295 18.272 11.4459C18.6005 11.1937 19.0521 11.3084 19.3075 11.6344C19.3828 11.7305 19.3434 11.8739 19.2369 11.9336C18.3603 12.4252 17.3167 13.8629 17.1833 13.7402Z" fill="#522C2C"/>
<path fill-rule="evenodd" clip-rule="evenodd" d="M10.1714 13.356C7.78049 13.0604 5.34655 14.2344 4.14711 16.488C2.59277 19.4083 3.70018 23.0358 6.62058 24.5902C6.64243 24.6018 6.66433 24.6133 6.68627 24.6246C6.68994 26.2658 7.57449 27.8516 9.12449 28.6766C11.3658 29.8695 14.1498 29.0196 15.3427 26.7783C16.2269 25.1171 15.9888 23.1578 14.8938 21.7691C15.955 19.427 15.3834 16.7135 13.5946 14.9898L14.4639 13.6238C14.5228 13.6882 14.5932 13.7436 14.6736 13.7864C15.0545 13.9891 15.5277 13.8447 15.7304 13.4637L17.5859 9.9775C18.8771 10.9917 20.5963 11.3259 22.1938 10.8382L22.9557 10.6056C23.0217 10.5854 23.0486 10.5066 23.0086 10.4503L21.8882 8.87442C21.4641 8.27798 20.8972 7.79748 20.2393 7.47692L17.9906 6.38119C15.8186 5.32287 13.1999 6.22614 12.1423 8.39848L10.4976 11.7765C10.2525 12.2801 10.1468 12.823 10.1714 13.356Z" fill="#3F2121"/>
<path d="M18.5616 17.0493C18.5424 17.2057 18.98 18.4504 20.8801 19.001" stroke="#DB8C74" stroke-width="0.570492" stroke-linecap="round" stroke-linejoin="round"/>
<ellipse cx="0.428797" cy="0.665574" rx="0.428797" ry="0.665574" transform="matrix(-0.981708 0.190393 0.190393 0.981708 20.5601 12.8968)" fill="#3F2121"/>
<path fill-rule="evenodd" clip-rule="evenodd" d="M20.5914 11.5484C20.9797 12.0004 21.299 12.6762 21.4469 13.4698C21.5948 14.2634 21.5403 15.0089 21.3408 15.5704C21.1397 16.1365 20.8055 16.484 20.4127 16.5572C20.02 16.6304 19.583 16.4265 19.1915 15.9709C18.8032 15.5189 18.4839 14.843 18.336 14.0494C18.1882 13.2558 18.2427 12.5103 18.4422 11.9488C18.6433 11.3828 18.9775 11.0352 19.3702 10.962C19.763 10.8888 20.1999 11.0927 20.5914 11.5484ZM20.838 11.3365C20.4093 10.8374 19.6974 10.4497 19.1428 10.553C18.5882 10.6563 18.1881 11.1306 17.9679 11.7506C17.746 12.3751 17.6027 13.3478 17.7591 14.1875C17.9156 15.0272 18.2558 15.7586 18.6877 16.2613C19.1164 16.7604 19.8283 17.1481 20.3829 17.0448C20.9375 16.9414 21.4269 16.2993 21.6472 15.6793C21.8691 15.0548 21.923 14.25 21.7666 13.4102C21.6101 12.5705 21.27 11.8392 20.838 11.3365Z" fill="white"/>
<path fill-rule="evenodd" clip-rule="evenodd" d="M13.4763 13.2182C13.4424 13.5011 13.7956 13.2448 14.0392 13.2491L17.946 13.3185C18.1895 13.3228 18.11 12.9831 18.1439 12.7002C18.1777 12.4174 18.3966 12.3573 18.1531 12.3529L13.9785 12.714C13.735 12.7097 13.5101 12.9354 13.4763 13.2182Z" fill="white"/>
<path d="M14.9489 13.3768C14.7783 14.4918 14.7337 15.4765 13.9804 15.3612C13.7204 15.3214 12.0502 14.0743 12.2208 12.9593C12.3915 11.8443 13.1405 11.0339 13.8938 11.1492C14.6472 11.2645 15.1196 12.2618 14.9489 13.3768Z" fill="#F9B8A4"/>
<path d="M13.3715 13.1902C13.3027 13.2442 13.2031 13.2323 13.1491 13.1634C13.095 13.0946 13.107 12.995 13.1758 12.941C13.2762 12.8622 13.4444 12.7634 13.6315 12.7229C13.822 12.6816 14.0548 12.6981 14.2358 12.8883C14.2961 12.9517 14.2936 13.0519 14.2303 13.1123C14.1669 13.1726 14.0666 13.1701 14.0063 13.1067C13.9858 13.0852 13.9637 13.0681 13.94 13.0549C13.9774 13.1156 14.0054 13.1803 14.0147 13.2507C14.032 13.3811 13.9819 13.4945 13.9049 13.5988C13.853 13.6692 13.7538 13.6842 13.6834 13.6323C13.613 13.5804 13.598 13.4812 13.6499 13.4108C13.7022 13.3398 13.7028 13.3086 13.7006 13.2924C13.6971 13.2661 13.6781 13.2213 13.6053 13.1332C13.5902 13.1149 13.5798 13.0941 13.5742 13.0725C13.4933 13.1064 13.4208 13.1515 13.3715 13.1902Z" fill="#DB8C74"/>
</g>
<rect x="0.5" y="0.5" width="31" height="31" rx="15.5" stroke="#E9EEF2"/>
<defs>
<clipPath id="clip0_628_20009">
<rect width="32" height="32" rx="16" fill="white"/>
</clipPath>
</defs>
</svg>
