<svg width="25" height="24" viewBox="0 0 25 24" fill="none" xmlns="http://www.w3.org/2000/svg">
<circle opacity="0.2" cx="12.5" cy="12" r="12" fill="#00B3B3"/>
<path d="M14.0686 15.8131C14.1649 15.8131 14.2438 15.8843 14.2342 15.9714C14.1943 16.3337 14.018 16.6743 13.7324 16.9341C13.4056 17.2314 12.9623 17.3984 12.5 17.3984C12.0378 17.3984 11.5944 17.2314 11.2676 16.9341C10.982 16.6743 10.8057 16.3337 10.7658 15.9714C10.7562 15.8843 10.8351 15.8131 10.9314 15.8131H14.0686Z" fill="#00B3B3"/>
<path fill-rule="evenodd" clip-rule="evenodd" d="M12.5 7.97986C10.587 7.97986 9.03625 9.27842 9.03625 10.8803V12.8718C9.05273 13.0011 9.00179 13.1354 8.88342 13.2346L7.96691 14.0026C7.71298 14.2154 7.63712 14.5353 7.7747 14.8132C7.91227 15.0911 8.23619 15.2723 8.59544 15.2722H16.4045C16.7637 15.2723 17.0877 15.0911 17.2253 14.8132C17.3629 14.5353 17.287 14.2154 17.0331 14.0026L16.1166 13.2346C16.0009 13.1376 15.9469 13.0036 15.9638 12.8717V10.8803C15.9638 9.27842 14.413 7.97986 12.5 7.97986Z" fill="#00B3B3"/>
<ellipse cx="12.5" cy="7.44829" rx="0.932665" ry="0.848313" fill="#00B3B3"/>
</svg>
