<svg xmlns="http://www.w3.org/2000/svg" width="49" height="48" viewBox="0 0 49 48" fill="none"><path d="M9.41187 28.2353V2.82353C9.41187 1.26414 10.676 0 12.2354 0H46.1178C47.6771 0 48.9413 1.26414 48.9413 2.82353V28.2353C48.9413 29.7947 47.6771 31.0588 46.1178 31.0588H26.353L18.4472 36.9882C17.8267 37.4536 16.9413 37.0109 16.9413 36.2353V31.0588H12.2354C10.676 31.0588 9.41187 29.7947 9.41187 28.2353Z" fill="#C9CBFF"></path><path d="M0 38.1176V12.7059C0 11.1465 1.26414 9.88232 2.82353 9.88232H36.7059C38.2653 9.88232 39.5294 11.1465 39.5294 12.7059V38.1176C39.5294 39.677 38.2653 40.9412 36.7059 40.9412H16.9412L9.03529 46.8706C8.41484 47.3359 7.52941 46.8932 7.52941 46.1176V40.9412H2.82353C1.26414 40.9412 0 39.677 0 38.1176Z" fill="#7B81FF"></path></svg>