<svg width="20" height="20" viewBox="0 0 20 20" fill="none" xmlns="http://www.w3.org/2000/svg">
<path d="M11.6667 9.16668H16.25C16.9404 9.16668 17.5 8.60703 17.5 7.91668V7.08334C17.5 6.39299 16.9404 5.83334 16.25 5.83334H3.75C3.05964 5.83334 2.5 6.39299 2.5 7.08334V7.91668C2.5 8.60703 3.05964 9.16668 3.75 9.16668H8.33333" stroke="#3C4852" stroke-width="1.5" stroke-linecap="round" stroke-linejoin="round"/>
<path d="M16.6668 9.16666V15.8333C16.6668 16.7538 15.9206 17.5 15.0002 17.5H5.00016C4.07969 17.5 3.3335 16.7538 3.3335 15.8333V9.16666" stroke="#3C4852" stroke-width="1.5" stroke-linecap="round" stroke-linejoin="round"/>
<path fill-rule="evenodd" clip-rule="evenodd" d="M8.33317 2.5V2.5C9.25365 2.5 9.99984 3.24619 9.99984 4.16667V5.83333H8.33317C7.4127 5.83333 6.6665 5.08714 6.6665 4.16667V4.16667C6.6665 3.24619 7.4127 2.5 8.33317 2.5Z" stroke="#3C4852" stroke-width="1.5" stroke-linecap="round" stroke-linejoin="round"/>
<path fill-rule="evenodd" clip-rule="evenodd" d="M11.6667 2.5V2.5C12.5871 2.5 13.3333 3.24619 13.3333 4.16667V4.16667C13.3333 5.08714 12.5871 5.83333 11.6667 5.83333H10V4.16667C10 3.24619 10.7462 2.5 11.6667 2.5Z" stroke="#3C4852" stroke-width="1.5" stroke-linecap="round" stroke-linejoin="round"/>
<rect x="8.3335" y="5.83334" width="3.33333" height="11.6667" rx="1" stroke="#3C4852" stroke-width="1.5" stroke-linecap="round" stroke-linejoin="round"/>
</svg>
