<svg width="25" height="24" viewBox="0 0 25 24" fill="none" xmlns="http://www.w3.org/2000/svg">
<circle opacity="0.2" cx="12.5" cy="12" r="12" fill="#8873FF"/>
<path d="M12.282 7.26428C12.5011 6.91191 13.0139 6.91191 13.233 7.26428L14.6473 9.53892C14.7244 9.6629 14.8468 9.75187 14.9886 9.78687L17.5889 10.429C17.9917 10.5285 18.1502 11.0162 17.8828 11.3335L16.1565 13.3814C16.0624 13.4931 16.0157 13.637 16.0262 13.7826L16.219 16.4541C16.2489 16.868 15.834 17.1694 15.4496 17.0131L12.9684 16.0042C12.8332 15.9492 12.6818 15.9492 12.5466 16.0042L10.0654 17.0131C9.68107 17.1694 9.26616 16.868 9.29604 16.4541L9.48887 13.7826C9.49938 13.637 9.45261 13.4931 9.35852 13.3814L7.63224 11.3335C7.36481 11.0162 7.52329 10.5285 7.92613 10.429L10.5265 9.78687C10.6682 9.75187 10.7907 9.6629 10.8677 9.53892L12.282 7.26428Z" fill="#8873FF"/>
</svg>
