<svg width="22" height="22" viewBox="0 0 22 22" fill="none" xmlns="http://www.w3.org/2000/svg">
<path fill-rule="evenodd" clip-rule="evenodd" d="M11.6665 3.49686C12.0183 3.49686 12.3321 3.71771 12.451 4.04875L12.8745 5.22841C12.9417 5.41392 13.0722 5.56978 13.243 5.66859L14.4994 6.3939C14.67 6.49233 14.8699 6.52718 15.0638 6.49227L16.2976 6.26968C16.6441 6.20668 16.9928 6.36818 17.1688 6.67318L17.8358 7.82366C18.0123 8.12783 17.9789 8.51005 17.7524 8.77906L16.9429 9.73612C16.8154 9.88662 16.7454 10.0774 16.7453 10.2747V11.7253C16.7454 11.9225 16.8154 12.1133 16.9429 12.2638L17.7524 13.2209C17.9789 13.4899 18.0123 13.8721 17.8358 14.1763L17.1688 15.3268C16.9929 15.6315 16.6446 15.7929 16.2984 15.7303L15.0646 15.5077C14.8708 15.4728 14.6708 15.5076 14.5002 15.6061L13.2438 16.3314C13.0731 16.4302 12.9426 16.586 12.8754 16.7716L12.4518 17.9512C12.3329 18.2825 12.0186 18.5034 11.6665 18.5031H10.3326C9.98089 18.5031 9.66702 18.2822 9.54813 17.9512L9.12462 16.7716C9.05742 16.5863 8.9273 16.4305 8.75697 16.3314L7.49978 15.6061C7.32918 15.5076 7.12923 15.4728 6.93538 15.5077L5.70153 15.7303C5.35506 15.7933 5.00637 15.6318 4.83034 15.3268L4.16339 14.1763C3.98689 13.8721 4.02024 13.4899 4.24676 13.2209L5.05626 12.2638C5.18376 12.1133 5.25377 11.9225 5.25385 11.7253V10.2747C5.25377 10.0774 5.18376 9.88662 5.05626 9.73612L4.2551 8.77906C4.02858 8.51005 3.99523 8.12783 4.17173 7.82366L4.83867 6.67318C5.01459 6.3685 5.36284 6.20706 5.70904 6.26968L6.94288 6.49227C7.13673 6.52718 7.33668 6.49233 7.50728 6.3939L8.76447 5.66859C8.93481 5.56946 9.06493 5.41368 9.13213 5.22841L9.55564 4.04875C9.67358 3.72029 9.98364 3.50005 10.3326 3.49686H11.6665Z" stroke="#3C4852" stroke-width="1.5" stroke-linecap="round" stroke-linejoin="round"/>
<circle cx="10.9997" cy="11" r="2.29262" stroke="#3C4852" stroke-width="1.5" stroke-linecap="round" stroke-linejoin="round"/>
</svg>
