<svg width="12" height="12" viewBox="0 0 12 12" fill="none" xmlns="http://www.w3.org/2000/svg">
<path d="M10.2353 1.00001H1.76527C1.67006 0.998687 1.57552 1.01613 1.48706 1.05135C1.39859 1.08657 1.31793 1.13887 1.24967 1.20526C1.18142 1.27166 1.12691 1.35085 1.08927 1.43831C1.05162 1.52578 1.03158 1.6198 1.03027 1.71501V10.285C1.03158 10.3802 1.05162 10.4742 1.08927 10.5617C1.12691 10.6492 1.18142 10.7284 1.24967 10.7948C1.31793 10.8611 1.39859 10.9134 1.48706 10.9487C1.57552 10.9839 1.67006 11.0013 1.76527 11H10.2353C10.3305 11.0013 10.425 10.9839 10.5135 10.9487C10.602 10.9134 10.6826 10.8611 10.7509 10.7948C10.8191 10.7284 10.8736 10.6492 10.9113 10.5617C10.9489 10.4742 10.969 10.3802 10.9703 10.285V1.71501C10.969 1.6198 10.9489 1.52578 10.9113 1.43831C10.8736 1.35085 10.8191 1.27166 10.7509 1.20526C10.6826 1.13887 10.602 1.08657 10.5135 1.05135C10.425 1.01613 10.3305 0.998687 10.2353 1.00001ZM4.04527 9.37001H2.54527V4.87001H4.04527V9.37001ZM3.29527 4.24001C3.0884 4.24001 2.89001 4.15783 2.74373 4.01155C2.59745 3.86527 2.51527 3.66688 2.51527 3.46001C2.51527 3.25314 2.59745 3.05474 2.74373 2.90847C2.89001 2.76219 3.0884 2.68001 3.29527 2.68001C3.40512 2.66755 3.51636 2.67844 3.62171 2.71195C3.72706 2.74547 3.82414 2.80085 3.9066 2.87449C3.98906 2.94813 4.05504 3.03835 4.10021 3.13925C4.14538 3.24015 4.16873 3.34946 4.16873 3.46001C4.16873 3.57056 4.14538 3.67987 4.10021 3.78077C4.05504 3.88167 3.98906 3.97189 3.9066 4.04553C3.82414 4.11916 3.72706 4.17455 3.62171 4.20807C3.51636 4.24158 3.40512 4.25247 3.29527 4.24001ZM9.45527 9.37001H7.95527V6.95501C7.95527 6.35001 7.74027 5.95501 7.19527 5.95501C7.02661 5.95624 6.86237 6.00915 6.72469 6.1066C6.58702 6.20404 6.48252 6.34135 6.42527 6.50001C6.38615 6.61753 6.36919 6.7413 6.37527 6.86501V9.36501H4.87527C4.87527 9.36501 4.87527 5.27501 4.87527 4.86501H6.37527V5.50001C6.51154 5.26356 6.70973 5.06877 6.94849 4.93661C7.18726 4.80445 7.45756 4.73993 7.73027 4.75001C8.73027 4.75001 9.45527 5.39501 9.45527 6.78001V9.37001Z" fill="#7A8B94"/>
</svg>
