<svg width="12" height="12" viewBox="0 0 12 12" fill="none" xmlns="http://www.w3.org/2000/svg">
<rect width="12" height="12" fill="white"/>
<path d="M11 2.89998C10.6242 3.06303 10.2267 3.17081 9.82 3.21998C10.2491 2.96364 10.5706 2.56037 10.725 2.08498C10.3218 2.32501 9.88038 2.49413 9.42 2.58498C9.11227 2.25127 8.70248 2.02913 8.2549 1.95341C7.80733 1.87769 7.34727 1.95266 6.9469 2.16658C6.54652 2.38049 6.22847 2.72125 6.04262 3.1354C5.85677 3.54955 5.81365 4.01368 5.92 4.45498C5.10471 4.41375 4.30722 4.20146 3.57933 3.83191C2.85143 3.46237 2.20942 2.94383 1.695 2.30998C1.51457 2.62507 1.41976 2.98189 1.42 3.34498C1.41936 3.68217 1.50211 4.01429 1.66088 4.31176C1.81965 4.60924 2.04951 4.86284 2.33 5.04998C2.00399 5.04111 1.68494 4.95363 1.4 4.79498V4.81998C1.40244 5.29243 1.568 5.74953 1.86866 6.11397C2.16932 6.4784 2.58663 6.7278 3.05 6.81998C2.87163 6.87427 2.68644 6.90289 2.5 6.90498C2.37095 6.90348 2.24221 6.89177 2.115 6.86998C2.24695 7.27639 2.50231 7.63156 2.84554 7.88606C3.18876 8.14057 3.60279 8.28176 4.03 8.28998C3.3086 8.85762 2.41794 9.16741 1.5 9.16998C1.33287 9.17053 1.16587 9.16051 1 9.13998C1.93721 9.74511 3.02941 10.0663 4.145 10.065C4.91485 10.073 5.67857 9.92749 6.39156 9.63702C7.10455 9.34655 7.75251 8.91692 8.2976 8.37323C8.84269 7.82954 9.27398 7.18268 9.56628 6.47044C9.85858 5.75819 10.006 4.99485 10 4.22498C10 4.13998 10 4.04998 10 3.95998C10.3923 3.66739 10.7307 3.3087 11 2.89998Z" fill="#7A8B94"/>
</svg>
