<svg width="12" height="12" viewBox="0 0 12 12" fill="none" xmlns="http://www.w3.org/2000/svg">
<path d="M11.5 4.85499C11.5247 4.13932 11.3682 3.429 11.045 2.78999C10.8257 2.52779 10.5214 2.35085 10.185 2.28999C8.79378 2.16375 7.39678 2.11201 6.00001 2.13499C4.60834 2.11097 3.21637 2.16104 1.83001 2.28499C1.55592 2.33485 1.30227 2.46341 1.10001 2.65499C0.650013 3.06999 0.600013 3.77999 0.550013 4.37999C0.477469 5.45877 0.477469 6.54121 0.550013 7.61999C0.564479 7.9577 0.61476 8.29291 0.700013 8.61999C0.760301 8.87253 0.882275 9.10617 1.05501 9.29999C1.25865 9.50172 1.51821 9.6376 1.80001 9.68999C2.87797 9.82305 3.96412 9.87819 5.05001 9.85499C6.80001 9.87999 8.33501 9.85499 10.15 9.71499C10.4387 9.66582 10.7056 9.52977 10.915 9.32499C11.055 9.18495 11.1596 9.01354 11.22 8.82499C11.3988 8.2763 11.4867 7.70205 11.48 7.12499C11.5 6.84499 11.5 5.15499 11.5 4.85499ZM4.87001 7.42499V4.32999L7.83001 5.88499C7.00001 6.34499 5.90501 6.86499 4.87001 7.42499Z" fill="#7A8B94"/>
</svg>
