<svg width="20" height="20" viewBox="0 0 20 20" fill="none" xmlns="http://www.w3.org/2000/svg">
<path d="M14.8026 15.7583L14.5109 15.0258C14.3634 14.6542 14.1343 14.3208 13.8409 14.0492L13.7876 14C13.3259 13.5717 12.7193 13.3333 12.0893 13.3333H7.91094C7.28094 13.3333 6.67428 13.5717 6.21178 13.9992L6.15844 14.0492C5.86511 14.3208 5.63678 14.6542 5.48844 15.0258L5.19678 15.7583" stroke="#3C4852" stroke-width="1.5" stroke-linecap="round" stroke-linejoin="round"/>
<path d="M12.0626 6.20593C13.2016 7.34496 13.2016 9.19169 12.0626 10.3307C10.9235 11.4698 9.0768 11.4698 7.93777 10.3307C6.79874 9.19169 6.79874 7.34496 7.93777 6.20593C9.0768 5.0669 10.9235 5.0669 12.0626 6.20593" stroke="#3C4852" stroke-width="1.5" stroke-linecap="round" stroke-linejoin="round"/>
<path d="M15.3033 4.6967C18.2322 7.62563 18.2322 12.3744 15.3033 15.3033C12.3744 18.2322 7.62562 18.2322 4.6967 15.3033C1.76777 12.3744 1.76777 7.62562 4.6967 4.6967C7.62563 1.76777 12.3744 1.76777 15.3033 4.6967" stroke="#3C4852" stroke-width="1.5" stroke-linecap="round" stroke-linejoin="round"/>
</svg>
